Coordinates
version=1
nRows=22
nColumns=24
inDegrees=yes

Units are S.I. units (second, meters, Newtons, ...)
Angles are in degrees.

endheader
time	pelvis_tilt	pelvis_list	pelvis_rotation	pelvis_tx	pelvis_ty	pelvis_tz	hip_flexion_r	hip_adduction_r	hip_rotation_r	knee_angle_r	ankle_angle_r	subtalar_angle_r	mtp_angle_r	hip_flexion_l	hip_adduction_l	hip_rotation_l	knee_angle_l	ankle_angle_l	subtalar_angle_l	mtp_angle_l	lumbar_extension	lumbar_bending	lumbar_rotation
      0.88516667	     -5.21219097	     -3.38057304	      5.15065754	     -0.39830739	      0.91137271	      0.35747504	     16.88316504	      8.23884800	     -5.13845689	    -19.83530069	      7.04496779	     -0.96420008	      4.17636916	     16.29566241	     -6.58316370	     -0.94394205	    -64.02425008	      2.40468223	     -6.66198798	      3.51847179	     -1.81934632	      5.10345177	     -3.18195294
      0.88933333	     -5.19474480	     -3.27541499	      4.93449540	     -0.39353040	      0.91235930	      0.35801852	     16.26846588	      8.24650953	     -4.89793654	    -19.34399814	      7.07744452	     -0.84038210	      4.19520712	     16.82923734	     -6.43654799	     -1.19754222	    -63.63979970	      2.84177511	     -6.71289286	      3.45821568	     -1.88212301	      5.00376550	     -2.98377471
      0.89350000	     -5.14491589	     -3.17122502	      4.71593919	     -0.38876819	      0.91336376	      0.35858646	     15.60950996	      8.25850383	     -4.64521599	    -18.82789733	      7.11202760	     -0.74564602	      4.21825408	     17.31936106	     -6.30510217	     -1.46229934	    -63.21163729	      3.23938048	     -6.73808853	      3.37837409	     -1.98253231	      4.89698321	     -2.70488496
      0.89766667	     -5.09048838	     -3.06133024	      4.48327123	     -0.38399989	      0.91433105	      0.35917230	     14.94548112	      8.26296145	     -4.38367250	    -18.31267019	      7.14294677	     -0.66744522	      4.24419591	     17.79092301	     -6.18000063	     -1.75474865	    -62.74344389	      3.60858138	     -6.76975888	      3.28352147	     -2.07057947	      4.78731514	     -2.41798125
      0.90183333	     -5.06056223	     -2.94050910	      4.22303247	     -0.37928802	      0.91521806	      0.35977666	     14.32746200	      8.25095972	     -4.09087705	    -17.83324774	      7.16148623	     -0.53985019	      4.26166598	     18.27562850	     -6.04464807	     -2.06949651	    -62.23216113	      3.96678433	     -6.83524502	      3.22074496	     -2.16132912	      4.67504515	     -2.22609404
      0.90600000	     -4.98184161	     -2.82939536	      3.97494939	     -0.37453055	      0.91614659	      0.36039532	     13.63405272	      8.25073787	     -3.81874391	    -17.30643743	      7.19300686	     -0.47374243	      4.28731854	     18.69485421	     -5.93718959	     -2.39041609	    -61.67290391	      4.27847718	     -6.87657665	      3.11932965	     -2.27434229	      4.55065313	     -1.88934043
      0.91016667	     -4.92853221	     -2.70405754	      3.69823389	     -0.36983304	      0.91698851	      0.36103605	     12.98876439	      8.23052027	     -3.50480845	    -16.81776871	      7.21911308	     -0.37165881	      4.30801937	     19.12856132	     -5.81562873	     -2.73104494	    -61.07311409	      4.57270993	     -6.94548006	      3.03776745	     -2.39436566	      4.43164674	     -1.64556179
      0.91433333	     -4.85897593	     -2.58303831	      3.42155858	     -0.36511023	      0.91781340	      0.36167626	     12.32087478	      8.20972341	     -3.20945041	    -16.31962299	      7.24927611	     -0.28048509	      4.32849078	     19.53194001	     -5.71039281	     -3.08565321	    -60.43273310	      4.83068548	     -7.02232961	      2.95369244	     -2.50831132	      4.30936226	     -1.36402097
      0.91850000	     -4.78561874	     -2.46581620	      3.13671474	     -0.36040962	      0.91859393	      0.36233963	     11.65017943	      8.18947891	     -2.90596101	    -15.81599582	      7.26950354	     -0.19493499	      4.35192467	     19.92424320	     -5.62067388	     -3.45729197	    -59.75944564	      5.06301977	     -7.11162402	      2.85469432	     -2.63438365	      4.17130372	     -1.05314325
      0.92266667	     -4.71707609	     -2.34749935	      2.84700233	     -0.35572591	      0.91931691	      0.36300676	     10.99240224	      8.16150910	     -2.59984959	    -15.32576336	      7.29422174	     -0.10535175	      4.37722261	     20.31236642	     -5.53336033	     -3.83356131	    -59.05030254	      5.26421563	     -7.21511898	      2.74906358	     -2.75608833	      4.03507010	     -0.75701014
      0.92683333	     -4.64536801	     -2.22534592	      2.54984029	     -0.35105431	      0.92000148	      0.36366727	     10.33519789	      8.12212768	     -2.29621362	    -14.84076779	      7.32466155	     -0.00287380	      4.40186990	     20.68352808	     -5.44540206	     -4.21883245	    -58.29841918	      5.43107553	     -7.34041609	      2.64754049	     -2.88184950	      3.90101940	     -0.47538534
      0.93100000	     -4.57250012	     -2.10541278	      2.25024848	     -0.34638673	      0.92063892	      0.36432292	      9.68083711	      8.07717578	     -2.00029561	    -14.36157273	      7.35810994	      0.10226317	      4.42667795	     21.04262914	     -5.36431159	     -4.60796909	    -57.50991868	      5.56869502	     -7.47379386	      2.54798785	     -3.00515920	      3.77624121	     -0.18888302
      0.93516667	     -4.50122962	     -1.99167009	      1.94920760	     -0.34173257	      0.92122133	      0.36498429	      9.02949323	      8.03328012	     -1.70524441	    -13.87938979	      7.38531227	      0.21257708	      4.45338661	     21.39652545	     -5.29415509	     -5.00081167	    -56.69147517	      5.67658827	     -7.63345197	      2.44255980	     -3.13368008	      3.64225312	      0.10669242
      0.93933333	     -4.42877295	     -1.88112571	      1.65133061	     -0.33708111	      0.92175700	      0.36562891	      8.38071157	      7.98329578	     -1.42793835	    -13.40264807	      7.41811979	      0.33199108	      4.48333615	     21.73887974	     -5.22695901	     -5.38752395	    -55.83723213	      5.75300174	     -7.80916388	      2.33009714	     -3.25520977	      3.51716912	      0.40333259
      0.94350000	     -4.36112764	     -1.77364881	      1.35309159	     -0.33243626	      0.92223108	      0.36626720	      7.74133551	      7.92885682	     -1.16009672	    -12.93180816	      7.45453164	      0.46055490	      4.51421939	     22.07705781	     -5.16575301	     -5.77544599	    -54.95120637	      5.80061900	     -7.99949419	      2.21905147	     -3.37270563	      3.39419587	      0.68471379
      0.94766667	     -4.29542873	     -1.66685328	      1.04547093	     -0.32780650	      0.92265594	      0.36689510	      7.11464349	      7.86661767	     -0.90601353	    -12.47745995	      7.48222513	      0.60423825	      4.54230188	     22.40315260	     -5.10836754	     -6.17450105	    -54.02657399	      5.81556855	     -8.20654719	      2.12197722	     -3.48401788	      3.28497873	      0.93573511
      0.95183333	     -4.23554567	     -1.57283461	      0.75316332	     -0.32316309	      0.92301538	      0.36749745	      6.49043723	      7.80905541	     -0.67395770	    -12.01603386	      7.51364475	      0.76370953	      4.56887659	     22.73040078	     -5.06125414	     -6.55113688	    -53.07831248	      5.80746284	     -8.42145987	      2.03412992	     -3.58752351	      3.17786319	      1.18203571
      0.95600000	     -4.17315427	     -1.49779867	      0.48117108	     -0.31852646	      0.92331767	      0.36806752	      5.85362091	      7.76512347	     -0.46173698	    -11.52818759	      7.55456523	      0.92528506	      4.63312689	     23.05558842	     -5.02292329	     -6.88906378	    -52.11432750	      5.78811932	     -8.67702673	      1.83807882	     -3.69740325	      3.07429666	      1.58837817
      0.96016667	     -4.11735085	     -1.40601579	      0.19696319	     -0.31388831	      0.92357489	      0.36863185	      5.24184064	      7.69469809	     -0.25867830	    -11.08045984	      7.60145613	      1.09383505	      4.66288247	     23.36326227	     -4.97327769	     -7.25111878	    -51.09551948	      5.70816867	     -8.89326115	      1.74954986	     -3.79584425	      2.97483288	      1.74096404
      0.96433333	     -4.05387392	     -1.33407841	     -0.06509617	     -0.30923927	      0.92378811	      0.36915405	      4.60883533	      7.63692936	     -0.08616920	    -10.60308341	      7.64344426	      1.27829471	      4.69782994	     23.65927368	     -4.93214477	     -7.57270482	    -50.05727733	      5.61284887	     -9.15858259	      1.65085053	     -3.90197794	      2.88679777	      1.98453231
      0.96850000	     -3.99734098	     -1.27334804	     -0.30402330	     -0.30458467	      0.92393066	      0.36963121	      3.98004336	      7.58450534	      0.05931340	    -10.12047691	      7.71614700	      1.47216582	      4.74912914	     23.95900622	     -4.88815154	     -7.84995447	    -48.99859504	      5.50217682	     -9.43321354	      1.51760690	     -4.00193407	      2.80328798	      2.27323227
      0.97266667	     -3.95271787	     -1.21368012	     -0.56509247	     -0.29992116	      0.92401514	      0.37011338	      3.37757696	      7.52592403	      0.19873166	     -9.66346995	      7.73350578	      1.68069346	      4.78630907	     24.25064205	     -4.86034541	     -8.16723347	    -47.90300330	      5.36236783	     -9.66562401	      1.42236048	     -4.07962447	      2.74159667	      2.46103665
